<?xml version="1.0" standalone="no"?>
<svg xmlns="http://www.w3.org/2000/svg" viewBox="0 0 162.8 34" width="162.8" height="34"><path fill="#000000" fill-rule="nonzero" d="M10 32.68L5.48 32.68L5.48 3.64L0 3.64L0 0.28L15.32 0.28L15.32 3.64L10 3.64L10 32.68ZM26.72 33.04L26.72 33.04Q23.44 33.04 21.48 31.76Q19.52 30.48 18.68 28.10Q17.84 25.72 17.84 22.52L17.84 22.52L17.84 10.24Q17.84 7.04 18.70 4.74Q19.56 2.44 21.50 1.22Q23.44 0 26.72 0L26.72 0Q30 0 31.92 1.24Q33.84 2.48 34.70 4.76Q35.56 7.04 35.56 10.24L35.56 10.24L35.56 22.56Q35.56 25.72 34.70 28.08Q33.84 30.44 31.92 31.74Q30 33.04 26.72 33.04ZM26.72 29.48L26.72 29.48Q28.52 29.48 29.44 28.74Q30.36 28 30.68 26.66Q31 25.32 31 23.52L31 23.52L31 9.32Q31 7.52 30.68 6.22Q30.36 4.92 29.44 4.22Q28.52 3.52 26.72 3.52L26.72 3.52Q24.92 3.52 23.98 4.22Q23.04 4.92 22.72 6.22Q22.40 7.52 22.40 9.32L22.40 9.32L22.40 23.52Q22.40 25.32 22.72 26.66Q23.04 28 23.98 28.74Q24.92 29.48 26.72 29.48ZM44.52 32.68L40 32.68L40 0.28L48.04 0.28Q50.96 0.28 52.70 1.34Q54.44 2.40 55.24 4.40Q56.04 6.40 56.04 9.24L56.04 9.24Q56.04 11.80 55.14 13.68Q54.24 15.56 52.48 16.58Q50.72 17.60 48.08 17.60L48.08 17.60L44.52 17.60L44.52 32.68ZM44.52 3.52L44.52 14.36L46.60 14.36Q48.56 14.36 49.68 13.92Q50.80 13.48 51.28 12.38Q51.76 11.28 51.76 9.28L51.76 9.28Q51.76 6.96 51.42 5.72Q51.08 4.48 50 4Q48.92 3.52 46.64 3.52L46.64 3.52L44.52 3.52ZM63.88 32.68L59.44 32.68L59.44 0.28L63.88 0.28L63.88 32.68ZM77.24 33.04L77.24 33.04Q73.80 33.04 71.90 31.60Q70 30.16 69.26 27.72Q68.52 25.28 68.52 22.28L68.52 22.28L68.52 10.84Q68.52 7.56 69.26 5.12Q70 2.68 71.90 1.34Q73.80 0 77.24 0L77.24 0Q80.28 0 82.06 1.12Q83.84 2.24 84.62 4.32Q85.40 6.40 85.40 9.32L85.40 9.32L85.40 11.88L81.12 11.88L81.12 9.60Q81.12 7.80 80.94 6.42Q80.76 5.04 79.96 4.28Q79.16 3.52 77.28 3.52L77.28 3.52Q75.36 3.52 74.48 4.34Q73.60 5.16 73.34 6.66Q73.08 8.16 73.08 10.16L73.08 10.16L73.08 23Q73.08 25.44 73.48 26.86Q73.88 28.28 74.80 28.88Q75.72 29.48 77.28 29.48L77.28 29.48Q79.12 29.48 79.92 28.66Q80.72 27.84 80.92 26.40Q81.12 24.96 81.12 23.04L81.12 23.04L81.12 20.64L85.40 20.64L85.40 23.04Q85.40 26 84.68 28.26Q83.96 30.52 82.20 31.78Q80.44 33.04 77.24 33.04ZM94.24 32.68L89.72 32.68L89.72 0.28L97.76 0.28Q100.68 0.28 102.42 1.34Q104.16 2.40 104.96 4.40Q105.76 6.40 105.76 9.24L105.76 9.24Q105.76 11.80 104.86 13.68Q103.96 15.56 102.20 16.58Q100.44 17.60 97.80 17.60L97.80 17.60L94.24 17.60L94.24 32.68ZM94.24 3.52L94.24 14.36L96.32 14.36Q98.28 14.36 99.40 13.92Q100.52 13.48 101.00 12.38Q101.48 11.28 101.48 9.28L101.48 9.28Q101.48 6.96 101.14 5.72Q100.80 4.48 99.72 4Q98.64 3.52 96.36 3.52L96.36 3.52L94.24 3.52ZM117.20 33.04L117.20 33.04Q113.92 33.04 111.96 31.76Q110.00 30.48 109.16 28.10Q108.32 25.72 108.32 22.52L108.32 22.52L108.32 10.24Q108.32 7.04 109.18 4.74Q110.04 2.44 111.98 1.22Q113.92 0 117.20 0L117.20 0Q120.48 0 122.40 1.24Q124.32 2.48 125.18 4.76Q126.04 7.04 126.04 10.24L126.04 10.24L126.04 22.56Q126.04 25.72 125.18 28.08Q124.32 30.44 122.40 31.74Q120.48 33.04 117.20 33.04ZM117.20 29.48L117.20 29.48Q119.00 29.48 119.92 28.74Q120.84 28 121.16 26.66Q121.48 25.32 121.48 23.52L121.48 23.52L121.48 9.32Q121.48 7.52 121.16 6.22Q120.84 4.92 119.92 4.22Q119.00 3.52 117.20 3.52L117.20 3.52Q115.40 3.52 114.46 4.22Q113.52 4.92 113.20 6.22Q112.88 7.52 112.88 9.32L112.88 9.32L112.88 23.52Q112.88 25.32 113.20 26.66Q113.52 28 114.46 28.74Q115.40 29.48 117.20 29.48ZM138.12 33.04L138.12 33.04Q135.32 33.04 133.46 31.84Q131.60 30.64 130.64 28.52Q129.68 26.40 129.52 23.60L129.52 23.60L133.52 22.52Q133.64 24.24 134.06 25.84Q134.48 27.44 135.44 28.46Q136.40 29.48 138.12 29.48L138.12 29.48Q139.88 29.48 140.78 28.50Q141.68 27.52 141.68 25.68L141.68 25.68Q141.68 23.48 140.68 22.14Q139.68 20.80 138.16 19.44L138.16 19.44L132.72 14.64Q131.12 13.24 130.36 11.58Q129.60 9.92 129.60 7.48L129.60 7.48Q129.60 3.92 131.64 1.96Q133.68 0 137.20 0L137.20 0Q139.12 0 140.58 0.50Q142.04 1 143.02 2.04Q144 3.08 144.58 4.66Q145.16 6.24 145.36 8.36L145.36 8.36L141.52 9.40Q141.40 7.80 141.04 6.46Q140.68 5.12 139.78 4.30Q138.88 3.48 137.20 3.48L137.20 3.48Q135.52 3.48 134.58 4.38Q133.64 5.28 133.64 7.04L133.64 7.04Q133.64 8.52 134.14 9.48Q134.64 10.44 135.76 11.44L135.76 11.44L141.24 16.24Q143.08 17.84 144.48 20.06Q145.88 22.28 145.88 25.32L145.88 25.32Q145.88 27.72 144.88 29.46Q143.88 31.20 142.14 32.12Q140.40 33.04 138.12 33.04ZM157.48 32.68L152.96 32.68L152.96 3.64L147.48 3.64L147.48 0.28L162.80 0.28L162.80 3.64L157.48 3.64L157.48 32.68Z" transform="translate(0 0) scale(1)"></path></svg>